<?xml version="1.0" encoding="UTF-8" standalone="no"?>
<!-- Created with Inkscape (http://www.inkscape.org/) -->
<svg
   xmlns:dc="http://purl.org/dc/elements/1.1/"
   xmlns:cc="http://web.resource.org/cc/"
   xmlns:rdf="http://www.w3.org/1999/02/22-rdf-syntax-ns#"
   xmlns:svg="http://www.w3.org/2000/svg"
   xmlns="http://www.w3.org/2000/svg"
   xmlns:sodipodi="http://sodipodi.sourceforge.net/DTD/sodipodi-0.dtd"
   xmlns:inkscape="http://www.inkscape.org/namespaces/inkscape"
   width="1144.2908"
   height="985.82526"
   id="svg2"
   sodipodi:version="0.32"
   inkscape:version="0.45.1"
   version="1.0"
   sodipodi:docbase="C:\Documents and Settings\Juan\Mis documentos\Mis imágenes\Wikipedia\mapas"
   sodipodi:docname="Municipios de Baja California Sur.svg"
   inkscape:output_extension="org.inkscape.output.svg.inkscape">
  <defs
     id="defs4" />
  <sodipodi:namedview
     id="base"
     pagecolor="#ffffff"
     bordercolor="#666666"
     borderopacity="1.0"
     inkscape:pageopacity="0.0"
     inkscape:pageshadow="2"
     inkscape:zoom="0.52341933"
     inkscape:cx="572.14539"
     inkscape:cy="492.91263"
     inkscape:document-units="px"
     inkscape:current-layer="layer1"
     inkscape:window-width="1024"
     inkscape:window-height="712"
     inkscape:window-x="-4"
     inkscape:window-y="-4" />
  <metadata
     id="metadata7">
    <rdf:RDF>
      <cc:Work
         rdf:about="">
        <dc:format>image/svg+xml</dc:format>
        <dc:type
           rdf:resource="http://purl.org/dc/dcmitype/StillImage" />
      </cc:Work>
    </rdf:RDF>
  </metadata>
  <g
     inkscape:label="Capa 1"
     inkscape:groupmode="layer"
     id="layer1"
     transform="translate(182.65264,-35.578101)">
    <path
       style="fill:#ffd42a;fill-rule:evenodd;stroke:#ffffff;stroke-width:3;stroke-linecap:butt;stroke-linejoin:miter;stroke-opacity:1;fill-opacity:1;stroke-miterlimit:4;stroke-dasharray:none"
       d="M 16.154641,59.12125 L 307.11983,63.740653 C 308.35142,64.356569 309.58305,64.972484 310.81463,65.588401 C 314.52251,67.442696 317.70381,67.859533 320.05163,70.207798 C 321.59172,71.748208 314.23221,76.860218 313.58572,79.446583 C 312.33303,84.458381 313.24575,89.365482 311.73834,92.380862 C 309.90724,96.043744 315.5415,97.782717 318.20423,98.848007 C 321.22662,100.05721 321.70335,109.54314 322.82272,111.78231 C 326.44768,119.03362 330.21232,114.29638 330.21232,123.79272 C 330.21232,128.15803 338.12007,126.56436 342.22041,126.56436 C 348.7986,126.56436 347.14153,130.89692 345.91521,135.80313 C 344.56894,141.18919 356.65334,138.86355 361.61808,141.3464 C 367.79217,144.43406 364.29629,147.81355 372.70248,147.81355 C 375.63339,147.81355 380.58726,151.88054 383.78687,154.28071 C 384.33766,154.69387 385.01845,154.89662 385.63425,155.20458 C 391.64461,158.21034 394.00869,162.67713 396.71865,166.29112 C 397.91195,167.88248 391.03395,173.82466 390.25276,174.60601 C 384.8783,179.98151 392.92887,183.91557 396.71865,188.46419 C 400.66211,193.19724 402.36783,192.37372 405.03194,197.70297 C 408.59736,204.83518 408.98419,203.11747 403.18455,206.01787 C 396.59956,209.311 403.41071,212.3106 407.80304,213.40889 C 409.03463,213.71686 410.26625,214.0248 411.49783,214.33277 C 416.42921,215.56585 420.60525,218.16345 422.58222,220.79993 C 425.62705,224.86046 427.01555,229.02222 430.89551,230.96259 C 436.03681,233.53373 437.57235,227.21434 441.0562,226.34319 C 445.60857,225.20488 447.95096,229.9727 449.36948,232.81034 C 451.70261,237.47746 448.51163,239.7065 445.67471,241.12524 C 440.06532,243.93048 446.50323,251.7769 447.52211,253.13565 C 451.24167,258.09603 456.46916,263.93222 460.45389,267.91769 C 462.5786,270.04281 473.4837,278.1784 475.23307,279.92811 C 477.24034,281.93575 468.76718,282.63214 468.76718,285.47138 C 468.76718,292.0979 467.20373,291.72641 465.99608,296.55793 C 465.31694,299.27505 474.50857,306.91981 477.08047,309.4922 C 480.99944,313.41196 487.24116,313.71808 487.24116,319.65488 C 487.24116,325.14861 494.26209,327.96978 499.24925,327.96978 C 505.09197,327.96978 510.08709,328.62273 514.02843,327.04592 C 519.30325,324.93555 513.98294,318.71962 510.33363,317.80712 C 506.03576,316.73243 505.37005,311.94659 499.24925,310.4161 C 492.63594,308.76245 492.7748,307.64018 487.24116,304.87283 C 484.06912,303.28651 485.1374,296.14686 486.31746,293.7863 C 488.761,288.8983 486.14681,285.30072 483.54636,282.69975 C 481.31156,280.4645 482.62265,272.9657 482.62265,269.76547 C 482.62265,267.65301 485.94654,273.73741 489.08855,275.30873 C 492.4827,277.00612 496.14574,278.52392 499.24925,280.852 C 504.72638,284.96062 499.06463,290.09078 506.63883,290.09078 C 512.24658,290.09078 516.32756,291.82051 520.49433,292.86241 C 524.13406,293.77253 528.75296,298.29632 529.73132,300.25344 C 531.00082,302.79294 534.18994,303.78906 536.19722,305.79671 C 536.60437,306.20395 528.10341,312.96821 527.88391,313.18773 C 526.50886,314.56307 531.93193,322.20919 532.50242,323.35039 C 534.40555,327.15741 537.65629,330.8885 539.892,335.36081 C 540.96328,337.50379 549.70749,338.71103 551.90009,340.90408 C 552.87375,341.87793 554.36329,342.1359 555.59489,342.75182 L 457.68279,327.96978 L 308.04354,364.9249 C 311.44441,368.32643 299.11004,359.98874 296.95915,355.68612 C 296.77306,355.31386 290.6316,352.26735 288.64587,348.29511 C 286.78038,344.56341 283.67012,350.17345 280.33255,341.82795 C 279.52137,339.79957 270.24875,336.80429 268.32447,335.36081 C 264.73132,332.66541 263.0211,329.84913 261.85858,325.19814 C 261.16318,322.41596 254.99696,319.25905 251.6979,315.95935 C 249.34292,313.60394 245.73958,319.1472 243.38461,321.50265 C 240.7683,324.11945 239.26596,311.18797 239.68982,309.4922 C 239.87032,308.77009 233.51183,301.46529 233.22391,301.17731 C 229.94999,297.90274 225.74014,296.46371 223.06323,293.7863 C 219.26786,289.99017 218.22265,289.61115 220.29212,285.47138 C 222.72226,280.61014 221.52786,277.77138 216.59732,279.00425 C 210.48129,280.53354 215.26299,286.18991 208.28405,282.69975 C 205.12041,281.11764 214.77532,275.75797 215.67365,275.30873 C 219.04556,273.62243 221.1625,268.60475 223.06323,266.06996 C 224.55657,264.07844 223.06323,254.86424 223.06323,252.21177 C 223.06323,246.8088 222.87857,243.52747 221.21583,240.20136 C 218.33742,234.44342 216.4531,239.85455 215.67365,242.973 C 214.02918,249.55205 215.63676,249.47703 211.97884,253.13565 C 208.64172,256.47344 206.04935,253.76127 204.58923,259.6028 C 203.89591,262.3767 206.1428,270.10158 207.36034,272.5371 C 210.08661,277.99071 200.15343,276.23261 197.19966,276.23261 C 190.18735,276.23261 190.73376,276.82196 190.73376,283.62363 C 190.73376,290.00482 181.04689,281.32591 180.57306,280.852 C 176.81962,277.09782 174.56184,274.83959 171.33607,271.61321 C 169.81485,270.0917 159.93295,267.90957 157.48059,266.06996 C 152.84668,262.59383 147.96026,268.12743 147.3199,270.68933 C 146.48317,274.03696 142.32454,279.7581 140.85402,282.69975 C 137.94398,288.52094 138.65156,288.33181 131.61703,290.09078 C 125.09262,291.72218 122.10217,288.88899 119.60894,286.39527 C 115.99786,282.78348 121.25771,278.9049 115.91414,276.23261 C 112.73524,274.64285 108.91713,272.5371 104.82973,272.5371 C 98.976092,272.5371 97.985098,269.17404 96.516445,263.29832 C 94.876086,256.73559 95.780095,256.15712 92.82165,252.21177 C 90.164723,248.66851 87.452195,246.6685 82.660971,246.6685 C 75.872429,246.6685 76.245454,241.83073 69.729182,240.20136 C 65.70125,239.19417 60.050166,240.20136 55.873705,240.20136 C 50.069789,240.20136 56.122217,246.49968 49.407808,244.82075 C 46.029917,243.97611 44.335454,236.0519 42.941911,234.65809 C 40.217533,231.93318 38.227168,230.01463 34.628625,229.11483 C 32.144083,228.49356 28.02371,221.58475 26.315339,219.87604 C 23.286453,216.84656 20.00489,215.41214 17.078348,212.48504 C 14.05992,209.46602 10.467346,207.86563 5.0702606,207.86563 C -0.72564918,207.86563 -0.73222061,207.20209 -4.1667323,210.63726 C -7.4146044,213.88578 -16.088257,205.18057 -17.098525,204.1701 C -20.521537,200.74643 -19.666392,197.70297 -26.335518,197.70297 C -32.787902,197.70297 -29.597807,204.60268 -36.496193,197.70297 C -38.428062,195.77072 -38.033427,193.70063 -42.962089,191.23583 C -45.916607,189.75829 -47.580596,185.61175 -47.580596,181.07316 C -47.580596,176.22936 -46.541705,174.14294 -47.580596,169.98663 C -47.580596,162.41332 -47.114185,163.98599 -52.199082,158.90008 C -54.887894,156.21076 -57.913033,155.16163 -61.436073,154.28071 C -64.916701,153.41037 -70.425179,150.24722 -73.44416,148.73744 C -77.472815,146.72271 -81.019357,143.93241 -83.604863,141.3464 C -85.825777,139.12505 -92.077549,138.41533 -94.68924,135.80313 C -98.196777,132.29491 -101.09842,135.57622 -99.307724,128.41211 C -99.029825,127.30025 -109.13652,122.27694 -110.39213,121.02109 C -113.17648,118.2362 -113.15548,114.58494 -114.08693,110.85843 C -115.46247,105.3552 -116.52554,103.78152 -121.47651,102.54353 C -121.75957,102.47275 -123.29695,114.44608 -123.32392,114.55395 C -123.93266,116.98939 -130.34974,109.54217 -130.7135,108.08679 C -132.75341,99.925635 -131.5139,100.69578 -141.79789,100.69578 C -148.13527,100.69578 -146.41639,95.761493 -146.41639,90.53311 C -146.41639,89.02402 -152.97785,84.894244 -153.80597,84.065965 C -159.13649,78.73442 -149.62604,77.37951 -147.3401,78.522696 C -144.21776,80.084161 -142.23905,83.724694 -137.17939,84.989851 C -135.31628,85.455732 -131.41796,80.315648 -127.94241,79.446583 C -123.19429,78.259332 -119.2389,79.446583 -114.08693,79.446583 C -107.54764,79.446583 -107.43921,82.400058 -103.92623,85.913738 C -102.55081,87.289405 -93.663633,87.32502 -91.918143,87.761481 C -86.19954,89.191402 -83.503833,94.329648 -80.833767,97.000265 C -78.956849,98.877523 -69.947591,98.848007 -66.978264,98.848007 C -61.004672,98.848007 -55.10834,99.060426 -49.427986,97.924152 C -45.426594,97.123711 -40.70963,95.975099 -37.419898,95.152491 C -34.286771,94.369067 -30.517394,90.096424 -28.182907,87.761481 C -25.830534,85.408654 -22.161023,83.82608 -18.945914,82.218222 C -15.333419,80.411618 -12.496122,79.446583 -9.7089232,79.446583 C -6.1182233,79.446583 -12.712124,86.145866 -15.251113,88.685367 C -17.394843,90.829492 -7.1556344,95.220068 -6.0141213,96.076378 C -2.4467226,98.752453 0.20960349,100.11273 3.2228706,101.61965 C 8.3110285,104.16424 7.6127191,108.09596 8.7650619,112.70619 C 9.8310256,116.97086 15.372869,115.28234 19.849442,116.40169 C 23.450323,117.30209 22.753448,121.94498 30.010141,121.94498 C 32.704067,121.94498 33.704919,113.72948 33.704919,110.85843 C 33.704919,109.15343 47.114231,109.93457 48.484125,109.93457 C 51.913338,109.93457 46.816085,118.20461 54.026292,116.40169 C 57.201602,115.60773 58.17781,111.32551 60.492189,109.01068 C 61.970284,107.5323 56.570093,102.55806 55.873705,99.771894 C 54.355952,93.699784 51.165417,97.090061 48.484125,99.771894 C 45.524888,102.73168 39.776066,94.010138 39.247133,93.304749 C 35.650602,88.508457 35.521926,86.664998 28.162728,89.609233 C 23.133389,91.621366 32.651403,96.87041 32.781235,97.000265 C 37.889364,102.10938 29.452724,104.39128 26.315339,104.39128 C 21.132866,104.39128 26.511025,111.97803 19.849442,105.31516 C 15.879403,101.34435 15.847587,99.467265 15.230958,97.000265 C 14.224646,92.9743 21.027839,94.483368 15.230958,88.685367 C 11.326356,84.780007 10.886855,84.065965 18.002053,84.065965 C 24.599703,84.065965 27.172497,83.999423 22.620538,79.446583 C 19.937995,76.763521 18.976017,71.814631 17.078348,69.283921 C 13.590917,64.63311 9.8282952,72.979437 5.0702606,72.979437 C 4.1797812,72.979437 9.2038907,66.604354 9.6887441,64.664538 C 9.8479634,64.027585 16.081152,59.194754 16.154641,59.12125 z "
       id="path2188" />
    <path
       style="fill:#ffd42a;fill-rule:evenodd;stroke:#ffffff;stroke-width:3;stroke-linecap:butt;stroke-linejoin:miter;stroke-opacity:1;fill-opacity:1;stroke-miterlimit:4;stroke-dasharray:none"
       d="M 493.70707,333.51306 L 506.63883,470.247 L 575.91627,524.75581 L 596.23765,524.75581 L 607.32204,545.08113 L 636.8804,561.71093 C 637.25379,560.21712 636.8804,558.63133 636.8804,557.09154 C 636.8804,554.6677 630.23854,549.34848 629.49082,547.85278 C 627.58202,544.03442 624.87233,543.92151 624.87233,538.614 C 624.87233,533.9946 624.87233,529.37521 624.87233,524.75581 C 624.87233,518.53572 625.85475,516.44091 619.33012,516.44091 C 614.71164,516.44091 610.09313,516.44091 605.47465,516.44091 C 601.12083,516.44091 597.16601,512.7641 596.23765,509.04988 C 594.62318,502.59074 595.75549,503.26547 590.69545,500.73499 C 587.47542,499.12466 587.66063,492.28886 587.00066,489.64846 C 586.00803,485.67718 582.46113,482.33641 580.53476,480.40967 C 577.58247,477.4568 575.16184,475.22434 572.22148,473.01864 C 568.5202,470.24214 569.45039,462.48222 569.45039,458.23658 C 569.45039,452.9214 568.52669,450.00626 568.52669,445.30231 C 568.52669,441.77225 568.49505,440.65127 564.83188,436.98739 C 562.05831,434.2133 567.24031,426.62631 567.60298,425.90086 C 569.8862,421.33354 573.14516,424.85417 573.14516,417.58596 C 573.14516,414.59185 568.32401,411.46444 566.67927,409.27104 C 563.5315,405.07318 566.85105,402.05185 562.98449,398.18452 C 559.79979,394.99921 557.62898,395.58981 559.28969,388.94573 C 560.47475,384.20459 560.58551,383.89875 557.4423,379.70694 C 555.59489,377.24328 561.60752,375.0704 562.98449,372.31594 C 563.5183,371.24807 555.31805,366.334 554.67118,365.84879 C 551.10598,363.17436 548.95969,362.90782 546.35789,360.30552 C 542.95108,356.89805 544.18702,355.13255 545.43419,350.14285 C 546.28427,346.74188 550.91259,345.30845 553.7475,344.59959 C 554.41542,344.43256 553.13171,343.36775 552.8238,342.75182 L 493.70707,333.51306 z "
       id="path2190" />
    <path
       style="fill:#ffd42a;fill-rule:evenodd;stroke:#ffffff;stroke-width:3;stroke-linecap:butt;stroke-linejoin:miter;stroke-opacity:1;fill-opacity:1;stroke-miterlimit:4;stroke-dasharray:none"
       d="M 494.63075,694.74939 L 533.42611,667.95693 L 663.66768,604.20934 C 668.10826,603.09899 657.60101,597.01796 653.507,594.97055 C 650.04645,593.23995 648.88849,588.17037 648.88849,583.88402 C 648.88849,580.44046 643.54266,575.523 641.49891,572.79746 C 639.01492,569.48486 640.11547,564.79339 637.80411,561.71093 L 607.32204,545.08113 L 596.23765,523.83192 L 576.83997,523.83192 L 506.63883,471.17089 L 493.70707,333.51306 L 458.60648,327.04592 L 308.96725,364.9249 C 310.50674,366.15674 312.19166,367.22607 313.58572,368.62042 C 315.83606,370.87119 318.36168,373.2398 322.82272,373.2398 C 328.63649,373.2398 330.66267,374.85086 334.83081,376.93531 C 339.15369,379.09719 343.7818,378.78308 349.60999,378.78308 C 351.08693,378.78308 363.1061,379.19296 363.46549,380.63084 C 364.31994,384.04932 369.93139,388.17058 369.93139,391.71736 C 369.93139,393.33943 366.47175,401.19137 369.00768,403.72777 C 375.34146,410.06278 373.31583,404.14167 376.39726,400.03228 C 378.05898,397.81621 383.09417,393.56544 384.71058,400.03228 C 386.02078,405.2742 382.40334,406.49129 381.01577,412.04269 C 379.6685,417.43276 382.21594,418.78637 385.63425,422.20535 C 388.10264,424.67421 391.10428,427.67642 393.94756,430.52025 C 397.88072,434.45417 398.56605,434.66971 398.56605,441.60679 C 398.56605,451.11733 399.27891,448.78692 405.03194,454.54107 C 406.65312,456.16259 412.38275,459.08286 413.34523,461.00821 C 414.7533,463.82489 419.20137,466.21938 417.96373,471.17089 C 416.83372,475.69184 415.16219,480.53149 414.26894,484.10519 C 413.69314,486.40881 411.70794,493.55411 414.26894,496.1156 C 418.01948,499.86687 417.96373,498.5337 417.96373,505.35438 C 417.96373,510.97381 418.51953,513.3013 421.65852,516.44091 C 423.17147,517.95414 432.03579,523.83192 425.35332,523.83192 C 423.73147,523.83192 410.1449,523.40262 415.19265,528.45133 C 418.92678,532.18622 421.37936,533.74205 416.11633,537.69011 C 411.8909,540.85981 412.10894,543.53193 414.26894,547.85278 C 415.90965,551.13484 416.29012,554.54849 415.19265,558.9393 C 414.30744,562.48081 405.95565,562.95711 405.95565,563.55869 C 405.95565,571.42052 403.85758,568.67954 401.33714,573.72135 C 399.0021,578.39237 400.41347,580.47398 400.41347,585.73176 C 400.41347,592.61957 396.54808,591.20417 395.79495,594.97055 C 394.73273,600.28266 393.3966,602.71802 392.10016,607.90485 C 391.89294,608.7339 390.57807,621.43764 391.17647,620.83913 C 394.93096,617.0839 395.1117,616.18166 396.71865,609.75261 C 397.67499,605.92655 403.15191,596.68778 404.10823,600.51382 C 404.5546,602.29961 406.5563,610.39881 405.03194,613.44812 C 404.50658,614.49906 403.10782,625.53527 402.26085,626.38242 C 399.31804,629.3258 396.48028,629.60106 399.48976,635.62117 C 400.34205,637.32613 405.03194,647.47549 405.03194,644.85996 C 405.03194,642.53287 404.40169,629.68935 409.65043,631.00179 C 414.72153,632.26982 413.34523,635.30113 413.34523,641.16447 C 413.34523,644.59124 417.85138,651.77665 417.96373,651.3271 C 418.94076,647.41828 417.96373,641.44575 417.96373,636.54506 C 417.96373,634.64968 414.55757,625.15537 417.04003,624.53465 C 418.99537,624.04571 427.20072,622.73705 427.20072,627.30628 C 427.20072,630.64752 425.74512,638.25271 427.20072,641.16447 C 430.16464,647.0934 433.14183,649.35346 435.51401,654.09874 C 438.30485,659.68151 440.20293,659.71245 443.8273,663.33753 C 446.52766,666.03841 447.03319,670.23956 451.2169,674.42408 C 453.62835,676.83599 459.53019,674.06388 459.53019,676.27181 C 459.53019,679.51329 458.60682,692.90138 465.99608,687.35835 C 469.91991,684.4149 470.11999,680.18192 473.38566,681.81508 C 474.94354,682.59417 475.52262,677.34049 477.08047,678.11957 C 479.03241,679.09574 481.86971,681.062 485.39376,684.58671 C 488.79326,687.98689 490.7419,689.56325 494.63075,694.74939 z "
       id="path2192" />
    <path
       style="fill:#ffd42a;fill-rule:evenodd;stroke:#ffffff;stroke-width:3;stroke-linecap:butt;stroke-linejoin:miter;stroke-opacity:1;fill-opacity:1;stroke-miterlimit:4;stroke-dasharray:none"
       d="M 665.51509,602.36156 C 666.63635,607.32161 667.5222,610.29442 671.98098,612.52424 C 675.39478,614.23148 678.44686,616.36714 678.44686,620.83913 C 678.44686,626.85889 685.39698,621.71826 682.14165,628.23016 C 680.43238,631.6494 688.4823,633.64815 690.45494,635.62117 C 694.11546,639.2824 692.372,645.64451 691.37865,647.63158 C 689.9646,650.46027 685.54981,651.54998 683.98907,657.79426 C 682.77859,662.63716 684.96099,667.95693 679.37057,667.95693 C 676.08613,667.95693 677.52318,677.62004 677.52318,680.8912 C 677.52318,683.9032 673.66598,688.44465 671.98098,690.12998 C 667.99593,694.11581 672.01125,697.64215 672.90467,701.21653 C 674.23235,706.5283 679.37057,706.35185 679.37057,713.22696 C 679.37057,717.69726 678.44043,720.60508 680.29427,724.31349 C 681.84536,727.4163 685.71535,729.61449 687.68385,733.55227 C 689.63818,737.4617 694.2289,741.94633 695.99716,743.71492 C 699.04795,746.76632 702.18333,746.20679 705.23415,749.25819 C 709.10527,753.13009 713.96319,752.95372 720.01333,752.95372 C 726.46104,752.95372 730.30529,754.93278 733.86881,758.49698 C 736.74951,761.37824 742.28058,760.34472 746.8006,760.34472 C 751.90193,760.34472 755.51015,759.55274 759.73238,758.49698 C 765.08244,757.15919 763.85262,753.73193 762.50349,748.33431 C 760.69247,741.08894 755.81152,740.2455 762.50349,733.55227 C 767.16252,728.89231 770.51427,731.09128 775.43526,733.55227 C 779.15396,735.41198 784.23925,740.36582 787.44335,744.6388 C 790.82897,749.15382 791.82889,752.94557 792.98554,757.57309 C 793.50834,759.66465 804.66977,758.49698 806.84104,758.49698 C 811.4415,758.49698 814.55271,760.50581 817.92542,762.1925 C 821.59962,764.02994 819.70023,770.2169 820.69651,774.20291 C 821.67733,778.12685 826.11463,783.31758 828.08611,785.28944 C 831.02113,788.22504 838.50452,788.16417 842.86529,789.90882 C 849.1903,792.43932 855.7971,787.35744 855.7971,795.45211 C 855.7971,799.03843 853.94968,799.93221 853.94968,805.61475 C 853.94968,809.50354 855.7971,813.46908 855.7971,818.54905 C 855.7971,819.99845 866.71828,825.84215 866.88147,825.94006 C 868.91108,827.15807 872.94265,835.69794 874.27107,837.02662 C 879.40385,842.16038 879.81327,842.63493 879.81327,849.96088 C 879.81327,853.04049 879.81327,856.1201 879.81327,859.19968 L 824.39132,865.66683 L 813.30693,946.96809 L 784.67226,949.73972 C 784.67226,955.118 780.97745,939.41209 780.97745,934.03381 C 780.97745,928.10884 780.58263,926.24789 777.28268,922.94727 C 774.46051,920.12458 772.27182,918.85936 769.89307,916.48011 C 768.34151,914.92826 770.81678,908.00976 770.81678,904.4697 C 770.81678,900.60133 767.03674,896.06955 765.27458,894.30706 C 762.19229,891.22416 760.38235,889.14011 758.80869,885.99216 C 756.39317,881.16015 754.17807,878.58903 751.41909,875.82949 C 748.29427,872.70408 744.5509,869.88384 742.18209,867.5146 C 738.8724,864.20423 736.47099,862.16004 732.02142,861.04744 C 728.13655,860.07604 725.83502,855.57405 721.86072,854.58029 C 717.63634,853.52399 712.7811,853.65642 708.00524,853.65642 C 702.64516,853.65642 698.00223,849.57782 695.07345,848.11315 C 691.64246,846.39732 687.62686,841.53199 685.83646,837.95047 C 684.51838,835.31382 677.64086,830.87873 674.75207,828.71172 C 671.15897,826.01636 669.46768,823.42629 666.43876,820.3968 C 663.09259,817.04998 662.47646,814.58596 659.97289,812.08191 C 656.63158,808.73997 653.66642,805.77424 650.7359,802.84312 C 647.81591,799.92256 642.15899,796.54103 637.80411,795.45211 C 634.28972,794.57332 630.76824,789.25029 626.71972,786.21333 C 625.19335,785.06833 622.48574,777.7953 621.17751,776.05065 C 618.30502,772.21991 614.70296,769.58135 611.01683,768.65962 C 607.19721,767.70454 603.85782,764.0979 599.93244,763.11635 C 594.2563,761.69703 590.03974,760.61277 585.15325,755.72534 C 582.08767,752.65915 576.71585,749.65805 574.06887,748.33431 C 569.02158,745.81017 566.01684,742.89559 561.13707,740.9433 C 556.21891,738.97562 551.47558,738.29649 547.2816,737.24778 C 539.73951,735.3619 539.77397,737.70627 535.27351,731.70451 C 532.27353,727.70376 529.13652,726.78767 526.03652,725.23737 C 522.49833,723.46791 520.25449,720.37808 517.72323,717.84632 C 515.03095,715.15352 507.89507,713.39324 505.71514,712.30307 C 501.53801,710.2141 500.93728,708.44818 498.32554,705.83591 C 495.25936,702.76914 495.61517,698.68777 494.63075,694.74939 L 535.27351,667.03304 L 665.51509,602.36156 z "
       id="path2194" />
    <path
       style="fill:#ffd42a;fill-rule:evenodd;stroke:#ffffff;stroke-width:3;stroke-linecap:butt;stroke-linejoin:miter;stroke-opacity:1;fill-opacity:1;stroke-miterlimit:4;stroke-dasharray:none"
       d="M 784.67226,950.66361 C 781.70644,954.07535 780.96428,959.87603 783.74857,965.44567 C 786.71293,971.37557 786.78907,972.18229 792.06186,977.45608 C 795.14109,980.53589 795.08743,984.1778 797.60405,986.69482 C 801.18716,990.27868 799.14142,992.23808 805.91733,992.23808 C 813.12954,992.23808 811.96953,994.34095 817.00175,996.8575 C 822.85195,999.78317 825.83798,995.81136 828.08611,991.31424 C 830.0214,987.4429 834.38507,988.54261 839.1705,988.54261 C 844.94662,988.54261 844.32851,985.23137 847.48379,982.0755 C 850.81144,978.7472 851.275,978.37993 858.56818,978.37993 C 863.68907,978.37993 868.72886,977.63153 868.72886,971.91281 C 868.72886,965.48517 868.65359,963.65438 872.42367,960.82628 C 875.21714,958.73079 879.44303,958.97851 884.43175,958.97851 C 890.01506,958.97851 892.11748,956.53839 893.66875,953.43524 C 894.95327,950.86568 901.80162,952.32552 904.75313,951.5875 C 908.84939,950.56324 912.09767,947.01316 914.91382,944.19647 C 919.04742,940.06207 915.91572,936.28484 921.37973,932.18606 C 924.33012,929.97282 926.63525,926.29235 927.84562,923.87116 C 929.67581,920.21003 925.99821,915.25018 925.99821,910.93685 C 925.99821,906.3417 927.86316,903.61601 926.92191,899.85031 C 926.74469,899.14127 933.67823,893.72611 934.31151,892.45929 C 935.14547,890.79104 929.17289,885.47194 927.84562,884.14439 C 924.45167,880.74978 922.5474,881.86083 920.45602,877.67724 C 917.68987,872.14388 912.15696,873.96749 908.44793,877.67724 C 905.13608,880.98975 901.36892,870.90749 901.05835,870.28624 C 899.83599,867.84106 892.10173,867.6548 889.97394,866.5907 C 886.6404,864.92363 884.52473,862.47974 881.66065,861.04744 C 879.82692,860.13039 879.49547,859.96464 877.96586,859.19968 L 824.39132,866.5907 L 813.30693,946.04423 L 784.67226,950.66361 z "
       id="path2196" />
  </g>
</svg>
